<svg width="136" height="139" viewBox="0 0 136 139" fill="none" xmlns="http://www.w3.org/2000/svg">
<path d="M68.5348 112.46L86.6737 107.841C86.8684 107.791 87.0849 107.9 87.1497 108.155C88.0249 111.592 86.0795 114.987 82.8348 115.813L75.7182 117.625C72.4736 118.451 69.1422 116.4 68.267 112.963C68.2021 112.709 68.34 112.509 68.5348 112.46Z" fill="#1A1A1A" stroke="black"/>
<path d="M65.5322 107.16L86.7751 101.75C88.0935 101.415 89.4608 102.241 89.8242 103.668L90.1939 105.12C90.5603 106.559 89.755 107.986 88.4478 108.319L67.2049 113.729C65.8978 114.061 64.508 113.193 64.1416 111.755L63.7719 110.303C63.4085 108.876 64.2139 107.496 65.5322 107.16Z" fill="#313131" stroke="black"/>
<path d="M59.2265 35.6356C73.7079 31.9479 88.6894 41.2586 92.5505 56.421C94.2986 63.2859 93.5405 70.4334 90.4625 76.5914C87.4973 82.4935 86.7714 89.2193 88.3794 95.5341L88.422 95.7016C88.4869 95.9561 88.3102 96.2249 88.1155 96.2744L62.86 102.706C62.6652 102.755 62.3815 102.604 62.3167 102.349L62.3025 102.294C60.6531 95.8167 56.8693 90.2962 51.5857 86.6678L51.5845 86.6671C45.4834 82.4954 41.2351 76.1562 39.6238 68.729C38.0833 61.5796 39.2467 54.2713 42.9186 48.0186C46.4366 42.0302 51.905 37.7431 58.3866 35.8636L59.0164 35.6891L59.2265 35.6356Z" fill="#FF9F00" stroke="black"/>
<path d="M42.8438 85.5454C42.9508 85.4134 43.2226 85.3692 43.4054 85.5505L43.4164 85.5618L43.4271 85.5722C43.5844 85.7107 43.6144 86.0291 43.4483 86.2097L43.4422 86.2173L43.4358 86.224L38.2625 92.2959C38.1825 92.3883 38.1194 92.418 38.0776 92.4286C37.9441 92.4624 37.8145 92.4292 37.6974 92.3087L37.6839 92.2951L37.6684 92.2819C37.5992 92.2209 37.5404 92.1092 37.5287 91.9668C37.517 91.8238 37.5574 91.7038 37.6142 91.6336L37.613 91.6329L42.8344 85.5558L42.84 85.5504L42.8438 85.5454ZM96.7193 71.7553C96.7997 71.5534 97.0636 71.4494 97.2291 71.5176L97.2424 71.5223L104.733 74.3621L104.734 74.3631C104.923 74.4413 105.072 74.6984 104.986 74.987L104.984 74.9958C104.955 75.0976 104.892 75.1763 104.693 75.227C104.661 75.235 104.614 75.2391 104.544 75.2225L104.467 75.1989L97.0196 72.3409L97.0108 72.3381L97.0018 72.3344L96.9223 72.2992C96.7527 72.2008 96.6568 71.9927 96.7193 71.7553ZM104.539 52.7536L104.545 52.7529L104.553 52.751C104.774 52.6948 104.994 52.8194 105.033 53.0741L105.036 53.0975L105.042 53.1202C105.107 53.3746 104.97 53.5738 104.775 53.6235L104.721 53.6372L97.0805 55.3462L97.0736 55.3469L97.066 55.3488C96.8427 55.4056 96.6084 55.2743 96.531 55.0165C96.5019 54.7378 96.6467 54.5265 96.8978 54.4626L96.8975 54.4616L104.539 52.7536ZM27.111 51.1996C27.1946 51.1535 27.3113 51.1326 27.4365 51.1601L35.0291 53.5518L35.0467 53.5574L35.064 53.562C35.244 53.6045 35.4268 53.8704 35.3478 54.1347L35.3448 54.1425C35.2996 54.3044 35.2021 54.3965 35.0685 54.4306C35.0427 54.4371 35.0064 54.4405 34.9629 54.4393C34.9244 54.4382 34.8881 54.4331 34.86 54.4272L27.2653 52.0351L27.2307 52.0257L27.1635 51.9995C27.009 51.9166 26.8777 51.6844 26.9468 51.4531L26.9531 51.4303L26.9575 51.408C26.9769 51.3111 27.0314 51.2436 27.111 51.1996ZM94.3418 33.9229C94.4858 33.7663 94.7109 33.7698 94.853 33.9399L94.8675 33.9573L94.884 33.9743C95.0557 34.1449 95.0671 34.4356 94.8736 34.6461L89.327 40.3323L89.2813 40.3782L89.2768 40.3844C89.2717 40.3861 89.2661 40.3888 89.2593 40.3909C89.2329 40.3989 89.2034 40.4071 89.1614 40.4178C89.0549 40.4449 88.9898 40.4416 88.9501 40.4313C88.9175 40.4229 88.8688 40.4012 88.8052 40.3251L88.7907 40.3077L88.7745 40.2916L88.7176 40.2225C88.619 40.0742 88.6135 39.8715 88.7207 39.7007L88.7846 39.6189L94.3314 33.9336L94.3371 33.9281L94.3418 33.9229ZM37.8061 32.2446C37.897 32.2451 37.9772 32.2784 38.0406 32.3542L38.0465 32.3617L38.0534 32.3691L43.5235 38.4081L43.532 38.418L43.5415 38.4277C43.7317 38.6165 43.704 38.9233 43.576 39.0538C43.5524 39.0699 43.5309 39.0848 43.5134 39.0969C43.4823 39.1185 43.4612 39.1328 43.4428 39.1441C43.4121 39.1631 43.3956 39.1702 43.3771 39.175C43.2131 39.2167 43.0407 39.1667 42.9458 39.0722L37.4956 33.0553C37.4192 32.9625 37.3719 32.8238 37.3755 32.6787C37.3792 32.5323 37.433 32.4271 37.4956 32.371C37.5937 32.2833 37.7086 32.2441 37.8061 32.2446ZM76.0066 22.5077C76.0501 22.2905 76.2452 22.1801 76.4464 22.2485L76.4695 22.2558L76.4932 22.2618C76.6878 22.3077 76.856 22.5425 76.8051 22.8062L74.8946 30.7096L74.8921 30.7193L74.8907 30.7297C74.8569 30.8983 74.7357 31.011 74.5823 31.0501C74.5638 31.0548 74.5459 31.0564 74.5098 31.0544C74.4883 31.0533 74.4629 31.0508 74.4253 31.0468C74.4099 31.0451 74.392 31.0431 74.3724 31.0411C74.1289 30.9378 74.0147 30.6929 74.0805 30.4725L74.0842 30.4594L74.087 30.4466L76.0024 22.5269L76.0049 22.5172L76.0066 22.5077ZM55.3473 22.4135C55.6147 22.3456 55.8165 22.4793 55.8763 22.7142L57.9096 30.6986C57.9792 30.9722 57.8331 31.2127 57.603 31.2715C57.4446 31.3118 57.1877 31.1955 57.1128 30.9015L55.0795 22.9171C55.0147 22.6625 55.1526 22.4631 55.3473 22.4135ZM27.1767 73.1L27.1674 73.0752C27.0935 72.8756 27.2317 72.6197 27.4361 72.5674L27.4437 72.5654L27.4501 72.5628L34.9773 70.4081L34.9775 70.4091C35.2289 70.3451 35.4563 70.4621 35.5639 70.7213C35.6268 71.0084 35.5008 71.2313 35.2237 71.336L27.7122 73.4262L27.6583 73.4399C27.4637 73.4892 27.248 73.3799 27.1832 73.1256L27.1767 73.1Z" fill="#FF8100" stroke="black"/>
<path d="M60.6435 102.281L88.7352 95.1272C90.0536 94.7916 91.4891 95.6605 91.8525 97.0875L92.2222 98.5392C92.5855 99.9662 91.7404 101.416 90.4222 101.752L62.3304 108.905C61.012 109.241 59.5766 108.372 59.2131 106.945L58.8435 105.493C58.4801 104.066 59.3251 102.617 60.6435 102.281Z" fill="#1A1A1A" stroke="black"/>
<path d="M57.1255 45.5051C57.3201 45.4558 57.5358 45.5651 57.6006 45.8194C57.6847 46.1498 57.523 46.334 57.347 46.3788L57.3442 46.3795C49.5548 48.4238 44.7883 56.3786 46.3765 64.5414L46.4566 64.9311C46.6648 65.975 46.9819 66.9909 47.407 67.9783C47.5136 68.2751 47.3634 68.5259 47.2161 68.5822L47.2168 68.585C47.1488 68.6098 47.0967 68.6393 47.0651 68.662C47.061 68.6649 47.0572 68.6681 47.0533 68.671C46.8969 68.6768 46.7283 68.5809 46.6594 68.4025L46.6556 68.3914L46.3368 67.5868C46.0307 66.7749 45.7679 65.9454 45.6015 65.1307L45.6003 65.126C44.6783 60.8528 45.4003 56.5111 47.565 52.8413C49.7276 49.1752 53.0979 46.59 57.1255 45.5051Z" fill="#FFC76A" stroke="black"/>
</svg>
