<svg width="441" height="111" viewBox="0 0 441 111" fill="none" xmlns="http://www.w3.org/2000/svg">
<path d="M39.116 61.22C37.388 61.22 35.996 60.708 34.94 59.684C33.884 58.628 33.1 57.124 32.588 55.172L27.5 35.012C27.468 34.948 27.42 34.932 27.356 34.964C27.292 34.964 27.26 34.996 27.26 35.06V60.452H19.052V31.22C19.052 28.852 19.724 27.028 21.068 25.748C22.412 24.436 24.092 23.78 26.108 23.78C29.852 23.78 32.332 26.068 33.548 30.644L38.924 50.324C38.956 50.42 39.004 50.468 39.068 50.468C39.132 50.468 39.18 50.42 39.212 50.324L44.444 30.644C45.052 28.404 45.98 26.708 47.228 25.556C48.508 24.372 50.124 23.78 52.076 23.78C54.092 23.78 55.756 24.436 57.068 25.748C58.412 27.028 59.084 28.852 59.084 31.22V60.452H50.924V34.724C50.924 34.66 50.892 34.612 50.828 34.58C50.764 34.548 50.716 34.58 50.684 34.676L45.548 55.172C45.068 57.124 44.3 58.628 43.244 59.684C42.22 60.708 40.844 61.22 39.116 61.22ZM69.374 30.164C68.126 30.164 67.07 29.796 66.206 29.06C65.374 28.324 64.958 27.364 64.958 26.18C64.958 25.028 65.374 24.084 66.206 23.348C67.07 22.612 68.126 22.244 69.374 22.244C70.59 22.244 71.614 22.612 72.446 23.348C73.31 24.084 73.742 25.028 73.742 26.18C73.742 27.364 73.31 28.324 72.446 29.06C71.614 29.796 70.59 30.164 69.374 30.164ZM65.486 60.5V33.14H73.262V60.5H65.486ZM78.1869 60.5V44.42C78.1869 41.956 78.6829 39.828 79.6749 38.036C80.6989 36.244 82.1389 34.868 83.9949 33.908C85.8509 32.916 88.0429 32.42 90.5709 32.42C93.0989 32.42 95.2909 32.916 97.1469 33.908C99.0029 34.868 100.427 36.244 101.419 38.036C102.443 39.828 102.955 41.956 102.955 44.42V60.5H95.1789V44.516C95.1789 42.788 94.7469 41.46 93.8829 40.532C93.0509 39.604 91.9469 39.14 90.5709 39.14C89.2269 39.14 88.1229 39.604 87.2589 40.532C86.3949 41.46 85.9629 42.788 85.9629 44.516V60.5H78.1869ZM119.374 61.22C116.942 61.22 114.782 60.596 112.894 59.348C111.038 58.1 109.582 56.372 108.526 54.164C107.47 51.956 106.942 49.428 106.942 46.58C106.942 43.796 107.454 41.348 108.478 39.236C109.502 37.092 110.91 35.428 112.702 34.244C114.494 33.028 116.558 32.42 118.894 32.42C120.686 32.42 122.27 32.772 123.646 33.476C125.054 34.148 126.19 35.092 127.054 36.308L127.486 33.14H133.918V60.5H127.486L127.054 56.9C126.222 58.244 125.134 59.3 123.79 60.068C122.446 60.836 120.974 61.22 119.374 61.22ZM120.766 54.404C122.558 54.404 123.982 53.7 125.038 52.292C126.094 50.884 126.622 48.98 126.622 46.58C126.622 44.18 126.094 42.292 125.038 40.916C123.982 39.508 122.558 38.804 120.766 38.804C118.942 38.804 117.502 39.508 116.446 40.916C115.39 42.292 114.862 44.18 114.862 46.58C114.862 48.98 115.39 50.884 116.446 52.292C117.502 53.7 118.942 54.404 120.766 54.404ZM149.833 60.5C147.593 60.5 145.785 59.828 144.409 58.484C143.065 57.108 142.393 55.3 142.393 53.06V39.38H137.881V33.14H142.393V25.94H150.169V33.14H155.737V39.38H150.169V51.716C150.169 52.324 150.361 52.82 150.745 53.204C151.129 53.588 151.609 53.78 152.185 53.78H156.553V60.5H149.833Z" fill="black"/>
<rect x="161" y="12" width="61" height="61" rx="6" fill="#00793E"/>
<path d="M177.376 56V36.92H182.596V56H177.376ZM179.968 34.616C179.08 34.616 178.336 34.34 177.736 33.788C177.136 33.212 176.836 32.48 176.836 31.592C176.836 30.728 177.136 30.02 177.736 29.468C178.36 28.916 179.116 28.64 180.004 28.64C180.892 28.64 181.624 28.928 182.2 29.504C182.8 30.056 183.1 30.764 183.1 31.628C183.1 32.516 182.8 33.236 182.2 33.788C181.624 34.34 180.88 34.616 179.968 34.616ZM198.994 56V44.624C198.994 43.448 198.682 42.524 198.058 41.852C197.458 41.156 196.63 40.808 195.574 40.808C194.854 40.808 194.23 41 193.702 41.384C193.198 41.744 192.802 42.26 192.514 42.932C192.25 43.58 192.118 44.336 192.118 45.2L190.894 41.816C191.374 40.136 192.154 38.804 193.234 37.82C194.338 36.836 195.67 36.344 197.23 36.344C198.646 36.344 199.87 36.656 200.902 37.28C201.958 37.88 202.774 38.72 203.35 39.8C203.926 40.88 204.214 42.128 204.214 43.544V56H198.994ZM187.15 56V36.92H191.758L192.298 41.564V56H187.15Z" fill="white"/>
<path d="M15.6466 87.4162C16.905 86.76 18.7385 86.3695 20.1558 86.2144C20.6096 86.1614 20.5262 86.6371 20.8402 86.6206C21.4611 86.5855 21.9088 86.216 22.5284 86.216C22.7364 86.2174 22.717 86.9321 22.9299 86.919C24.0767 86.849 25.0224 86.3552 26.1326 86.1395C27.1384 85.9444 28.1378 85.7372 29.1394 85.5179C33.7946 84.4897 38.2112 83.5943 42.7623 82.7619C44.5978 82.4278 46.9348 82.5202 48.7372 81.8459C48.9498 81.766 48.6906 81.2197 48.7217 81.163C48.8035 81.0173 48.8713 80.9302 48.9304 80.8862C49.2491 80.6621 49.3289 81.5122 49.7236 81.5606C51.571 81.7913 53.5459 81.4764 55.082 80.9589C55.7313 80.7344 54.8439 79.7128 55.6324 80.2293C55.6872 80.2638 55.6397 80.9112 55.8343 80.941C56.2748 81.0085 57.0242 80.738 57.3495 80.7167C57.978 80.6795 58.0801 80.6494 58.6596 80.5216C58.8724 80.4758 59.0982 80.448 59.3403 80.4225C59.9862 80.3566 60.7036 80.32 61.3119 80.0579C61.4896 79.9794 61.0845 79.4204 61.3549 79.2386C61.6176 79.0592 62.4179 78.9091 62.7176 78.9875C63.0218 79.065 63.0353 79.5826 63.111 79.6824C63.7397 80.5277 64.3104 78.9818 64.4179 78.919C66.4078 77.81 68.4435 78.0706 70.4602 77.5477C71.9921 77.1488 73.5738 76.4843 75.0518 76.1543C76.1171 75.9178 77.1134 75.8175 78.1097 75.675C78.7617 75.5817 79.4119 75.4709 80.0822 75.2928C80.2618 75.246 79.8809 74.559 80.1008 74.5001C82.4297 73.8775 84.7924 73.4534 87.24 73.4772C87.4845 73.4805 87.3145 74.1909 87.5658 74.2333C89.1145 74.4735 91.6124 75.3274 91.9488 72.3338C92.9508 72.263 94.164 72.1655 95.1442 72.5891C95.6241 72.7948 95.4917 73.3057 95.6767 73.3609C95.7383 73.3784 95.8336 73.3484 95.995 73.246C96.1447 73.1524 95.8343 72.562 96.0684 72.4687C97.0602 72.0761 98.207 72.1301 99.1848 71.6911C99.3837 71.6003 99.2647 71.0438 99.3124 70.9359C99.7235 70.0582 100.687 71.3359 100.871 71.4192C102.291 72.0314 103.242 71.672 104.489 71.6121C104.779 71.5989 104.39 70.8603 104.668 70.8205C106.109 70.6243 107.593 70.6212 108.985 70.8895C109.296 70.9509 109.047 71.6124 109.196 71.6748C109.857 71.9419 109.934 70.7123 110.558 70.942C110.689 70.9888 110.649 71.5468 110.676 71.6063C111.102 72.5398 111.338 71.1667 111.428 71.1309C111.622 71.049 111.811 71.0192 111.989 71.0253C113.145 71.0739 113.894 71.8924 115.499 72.2197C115.774 72.301 115.376 71.3763 116.211 71.6973C116.844 71.966 117.762 72.5642 118.288 73.6473C119.522 76.3223 118.385 78.4891 117.645 79.7103C116.809 81.0123 115.853 81.9329 114.886 82.7278C114.548 83.0031 114.336 82.4311 114.268 82.4111C113.213 82.0934 114.078 83.1754 114.027 83.3151C113.608 84.3759 112.095 84.3623 112.871 85.9465C112.671 86.1257 112.478 86.3065 112.295 86.4869C109.747 89.0512 107.721 91.912 106.243 94.0823C106.252 93.9973 106.279 93.8676 106.266 93.6042C106.256 93.3549 106.149 92.9318 105.918 92.6243C105.406 91.9939 105.088 92.0595 105.024 92.0555C104.884 92.1062 105.113 92.2301 105.317 92.3175C105.362 92.3336 105.287 93.0053 105.385 93.0342C106.616 93.3444 106.333 92.2957 106.944 90.9355C107.1 90.5918 107.962 92.0128 108.048 92.1121C108.331 92.4864 108.27 93.5073 108.356 93.5746C109.059 94.0966 108.4 90.8649 109.174 90.7226C109.199 90.7235 109.206 91.3394 109.283 91.3866C109.527 91.5343 109.682 91.2595 109.923 91.426C110.478 91.8116 110.956 93.3515 111.488 92.2927C111.559 92.1546 111.04 90.3523 111.769 90.2924C111.786 90.291 111.807 90.2888 111.83 90.2857C112.188 90.2406 113.335 89.9764 113.681 90.019C114.061 90.0619 113.944 90.7033 113.974 90.7235C115.09 91.3002 114.8 91.6999 115.527 92.7507C116.247 93.7984 115.527 91.085 115.656 90.7371C115.793 90.3883 116.616 90.8833 116.844 91.0677C117.062 91.2545 116.932 91.6746 117.11 91.7685C118.296 92.3766 117.258 90.3123 117.498 89.8046C118.053 88.6059 119.112 90.5039 119.874 90.5469C120.079 90.5586 119.82 90.1301 119.984 90.0493C120.64 89.7337 121.186 90.2792 121.841 89.5288C121.946 89.4068 122.32 88.0469 122.919 88.8563C123.005 88.9732 122.949 89.5153 123.267 89.5655C123.746 89.6405 124.554 89.5827 124.988 89.3128C125.307 89.1134 124.731 88.3634 125.224 88.5293C125.443 88.6035 125.186 89.1692 125.591 89.2678C125.992 89.3669 126.918 89.1474 127.265 89.0566C127.613 88.9649 127.287 88.3719 127.306 88.3232C127.426 88.0422 128.043 87.5929 128.101 87.5816C131.111 86.8678 134.119 87.3665 136.998 86.4323C137.225 86.3599 136.939 85.72 136.972 85.702C137.712 85.2654 137.436 87.17 138.104 87.6589C137.759 86.314 138.133 86.4967 138.664 86.2392C138.92 86.114 138.671 85.6154 138.685 85.5567C138.93 84.6792 139.408 85.6599 139.52 85.8578C139.933 86.5854 140.047 85.6107 140.325 86.097C140.603 86.5794 140.335 87.4232 140.868 87.3122C140.926 86.7963 140.287 85.5975 140.655 85.314C142.048 84.2398 145.114 84.717 146.369 84.6072C146.42 84.6026 146.47 84.598 146.518 84.5934C147.657 84.483 148.041 84.34 148.762 84.3926C150.119 84.4939 149.483 83.6251 150.223 83.0567C150.967 82.4887 150.951 84.8898 151.15 85.3729C151.346 85.8563 151.387 85.3193 151.574 85.5723C151.76 85.8253 151.509 86.2163 151.858 86.2662C152.206 86.3159 152.975 85.2771 153.01 84.7331C153.085 83.5803 152.487 82.4765 153.44 82.7477C153.495 82.7641 153.426 83.4049 153.631 83.4365C155.254 83.6678 156.868 83.4548 158.476 83.6492C158.698 83.6769 158.607 84.3898 158.737 84.4137C160.086 84.6662 159.46 83.5773 159.986 82.1923C160.071 83.9236 160.605 84.9133 161.586 84.787C162.173 84.7122 161.967 83.9799 162.277 83.4009C162.37 83.2265 162.856 83.6824 162.884 83.3209C162.977 82.1389 162.406 80.9068 163.492 81.2816C163.54 81.3 163.483 81.9476 163.641 81.9651C164.663 82.0822 164.627 80.8643 165.682 80.5788C166.509 80.3551 168.106 80.8978 169.075 80.9002C169.294 82.8281 170.14 82.277 170.348 80.9046C170.979 80.8837 171.643 80.7289 172.264 80.8426C172.477 80.8812 172.407 81.455 172.44 81.5123C172.95 82.4115 173.072 81.0874 173.2 81.0213C174.601 80.3614 175.896 81.2109 177.184 80.104C177.229 80.0643 177.169 78.7152 177.641 79.655C177.673 79.7198 177.277 80.3781 177.938 80.3563C178.598 80.3346 179.907 80.9269 180.751 80.2167C180.962 80.0449 181.403 78.9024 181.94 79.7102C182.011 79.82 181.982 80.2111 182.088 80.417C182.43 81.0732 182.451 79.7027 182.889 80.8244C183.055 81.2541 183.268 81.6367 183.511 81.8964C183.917 82.3134 184.392 82.4121 184.916 81.8718C184.943 81.8462 185.061 80.7519 185.356 80.7438C185.817 80.7325 186.484 80.9029 186.969 80.8573C187.198 80.8353 186.999 80.1786 187.037 80.1632C188.558 79.6672 189.712 80.183 191.385 80.3459C191.687 80.3771 192.521 79.4172 193.146 80.1142C193.83 80.8787 193.306 84.1888 194.719 83.357C195.275 83.0271 195.974 78.8314 197.068 80.9944C197.709 80.829 198.335 80.8291 198.955 80.8885C200.344 81.0226 201.63 81.4932 203.115 81.1633C203.212 81.1421 203.671 80.0302 203.897 80.0814C204.224 80.1581 204.318 80.7264 204.542 80.8012C205.484 81.1308 206.462 80.8599 207.379 81.1468C207.727 81.2551 207.474 81.7738 207.884 81.9045C208.289 82.0344 208.751 81.3846 209.228 81.8734C209.589 82.2449 209.643 83.8231 210.192 84.1362C210.562 82.6858 210.951 82.8172 211.733 82.575C211.881 82.5266 211.841 81.9878 211.916 81.9384C212.216 81.7247 212.371 82.191 212.652 81.9386C212.72 81.878 212.797 81.3731 212.853 81.2941C212.99 81.093 213.121 81.0514 213.238 81.0963C213.289 81.0983 213.437 81.1321 213.488 81.1419C213.805 81.3072 214.011 81.9955 214.06 82.1536C214.322 82.9991 214.685 82.4012 214.957 82.7695C215.234 83.138 214.64 83.3883 215.002 83.655C215.76 84.2083 216.868 84.3424 217.726 84.5115C218.07 84.5761 217.948 83.864 218 83.8576C218.726 83.8052 219.348 84.6268 219.917 83.3317C219.958 86.8759 220.385 83.0551 221.297 83.8577C221.369 83.9218 221.315 85.5855 220.971 85.7955C220.626 86.0049 220.206 85.4348 219.721 85.7546C219.611 85.8311 218.794 87.2889 218.692 87.3685C217.924 87.9998 218.219 85.5311 218.209 85.3922C218.07 83.882 217.086 85.4113 216.867 85.4881C215.9 85.8502 215.23 85.3551 214.425 85.5636C213.899 85.6958 213.48 87.2664 213.107 87.1265C212.67 86.9621 212.401 86.565 212.168 86.1913L212.694 86.2869C212.01 85.6503 211.643 85.0718 210.553 86.1406C210.199 86.4904 210.045 88.2828 209.423 86.6995C209.382 86.5998 209.023 85.1953 208.461 85.8874C208.39 85.9746 208.266 86.4772 208.195 86.5043C207.717 86.6747 207.556 86.2088 207.08 86.2958C206.607 86.3836 206.045 86.553 205.619 86.2789C205.361 86.1139 205.2 85.0946 205.11 84.8356C204.852 84.0884 204.235 85.1076 204.144 84.2551C204.039 83.3964 204.754 82.2435 204.173 81.6013C203.926 82.9237 203.645 84.2765 203.39 85.6054C202.07 85.3409 200.799 84.7694 199.437 84.7711C199.269 84.773 199.41 85.5022 199.234 85.5235C199.101 85.5392 198.971 85.5356 198.841 85.5203C198.196 85.449 197.612 85.1236 196.926 85.2933C196.278 85.4561 195.585 86.2332 194.919 86.4453C194.462 84.9175 193.447 85.4776 192.697 85.3751C192.431 85.3396 192.425 84.9284 192.233 84.8042C191.492 84.3474 191.906 85.6874 191.724 85.9118C190.95 86.8718 190.689 83.8033 189.696 83.946C189.637 83.9528 189.119 85.6341 189.033 85.743C188.527 86.448 188.902 85.1798 188.541 85.0849C187.883 84.9119 187.402 84.5563 186.684 85.0972C186.473 85.2573 186.036 86.3201 185.534 85.5695C185.468 85.4712 185.453 84.9282 185.405 84.9004C184.541 84.4442 184.664 86.1449 184.25 86.7617C184.171 86.8782 184.077 86.9335 183.974 86.9443C183.549 86.9893 182.96 86.2149 182.819 85.9518C182.353 85.1149 183.075 85.5511 183.093 85.4631C183.245 84.4201 182.73 84.6452 182.316 84.5979C182.097 82.9401 181.536 83.095 181.885 84.5559C181.922 84.7156 182.227 84.5297 182.316 84.5979C182.109 86.2646 181.513 86.5331 180.675 85.0769C180.283 84.3946 180.495 83.5313 179.55 83.9351C179.117 84.1183 179.402 85.2457 179.046 85.5978C178.219 86.4028 176.95 85.459 176.039 85.7296C175.711 85.8275 176.106 86.4176 175.885 86.5061C175.292 86.7436 174.709 86.3336 174.122 86.6443C174.07 86.6732 174.279 87.3129 174.091 87.3428C172.664 87.5835 171.361 87.3128 169.86 87.4855C169.138 87.5686 167.884 88.0928 167.127 88.117C165.812 88.162 164.084 87.4253 163.006 87.8086C162.299 88.0562 162.551 88.6873 162.303 89.1753C161.826 90.1206 160.554 88.7253 160.375 88.5071C160.37 88.4997 160.971 88.2572 160.591 87.9693C160.298 87.2986 160.382 88.5031 160.375 88.5071C160.259 88.3656 158.995 88.3968 158.766 88.5582C158.642 88.6459 158.808 89.2531 158.742 89.2872C157.164 90.0837 155.533 90.4925 153.812 90.4694C153.78 90.4616 153.715 89.7643 153.643 89.7546C152.621 89.6022 152.135 90.5472 151.419 91.1792C150.703 91.8111 150.046 91.7496 149.372 90.6469C148.872 90.8644 148.09 90.613 147.53 90.393C147.443 90.3589 147.361 90.3256 147.287 90.2948C146.733 90.0653 146.9 91.4175 146.861 91.4516C145.649 92.5406 144.726 91.9167 143.288 92.0598C142.606 92.1251 141.308 92.571 140.607 92.8573C140.057 93.0849 139.646 92.8397 139.157 93.1427C139.091 93.1833 139.279 93.7638 139.261 93.7909C138.81 94.6173 138.809 93.1089 138.636 92.8732C138.007 92.0166 137.637 91.5671 136.962 92.1621C136.805 92.2988 136.717 94.4904 136.422 94.6768C136.038 94.915 136.044 94.1344 135.648 94.403C135.614 94.4253 135.715 94.8859 135.444 94.9193C134.185 95.0817 132.776 95.0909 131.495 95.4058C131.319 95.4471 131.698 96.1321 131.447 96.2038C130.271 96.5394 128.96 96.7877 127.719 96.6942C127.415 96.6684 127.485 96.1182 127.391 95.9793C126.812 95.1409 126.553 96.5941 126.47 96.6383C124.471 97.7383 122.58 96.8833 120.514 97.9347C120.407 97.9933 119.798 99.6251 119.12 98.4864C119.072 98.4113 118.4 97.2415 118.224 98.179C118.213 98.2375 118.608 98.8293 118.149 98.8596C117.695 98.8889 117.08 99.474 116.308 98.8956C116.071 98.7122 115.339 97.5573 114.977 98.6789C114.953 98.7572 114.525 101.21 113.879 99.7147C113.829 99.598 113.738 99.1638 113.602 98.8437C113.447 98.4883 113.231 98.2756 112.956 98.7967C112.855 98.9885 113.181 99.3065 112.862 99.6108C112.389 100.076 111.561 99.7786 111 100.647C110.907 100.799 110.581 102.024 109.991 101.242C109.901 101.12 109.933 100.543 109.697 100.519C108.538 100.399 107.501 100.97 105.804 100.664C105.152 100.542 105.508 99.6366 104.759 99.3718C104.341 99.2026 103.921 99.22 102.377 98.5873C101.968 98.3975 101.442 98.1225 100.854 97.5966C100.242 97.0599 99.6205 96.1828 99.3273 95.269C98.7653 93.3741 99.1502 92.4083 99.2131 91.8401C99.2064 91.78 99.1957 91.7216 99.1806 91.6651C98.9987 90.9258 97.3772 91.1167 97.638 90.1118C98.9373 85.8316 101.643 84.2351 103.392 82.2575C103.657 81.9712 103.053 81.8819 103.412 81.4406C103.76 81.0116 104.144 80.4959 104.539 79.9705C105.887 78.2328 107.178 76.7268 108.403 76.4478C109.754 76.1292 109.472 77.6231 110.266 77.161C110.662 76.9129 109.452 75.6727 109.429 75.6073C109.372 75.1916 109.473 75.0818 109.556 75.1187C109.644 75.1729 109.668 75.3231 109.536 75.9604C109.493 76.2486 108.799 75.9601 108.78 76.2623C108.753 76.7581 108.939 77.4177 109.252 77.9506C110.331 79.9991 111.881 80.532 112.346 80.7543C112.573 80.8524 112.588 80.9948 112.624 81.1398C112.652 81.2815 112.693 81.4173 112.81 81.4215C113.31 81.4185 113.137 81.1385 112.854 80.6712C112.821 80.6281 112.991 79.9695 112.744 79.9571C112.706 79.9559 112.665 79.9515 112.623 79.9449C111.855 79.9028 110.957 79.5955 110.18 80.0905C109.927 80.2539 109.975 81.4473 109.374 80.6518C109.25 80.4855 109.326 79.0462 108.743 80.3154C108.643 80.5265 107.654 82.2478 107.086 81.1987C106.935 80.9226 106.524 79.769 106.235 79.9695C106.196 80.0011 106.393 80.6326 106.149 80.7087C105.289 80.9657 104.387 80.9529 103.533 81.2178C103.307 81.2898 103.699 81.9259 103.361 82.0122C102.433 82.2505 101.273 82.1882 100.36 82.0839C100.022 82.0441 100.186 81.472 100.156 81.4152C99.6542 80.4935 99.5809 81.827 99.4666 81.9186C98.741 82.4735 98.0652 81.9483 97.3774 82.2255C97.1886 82.3005 97.4296 82.8956 97.3999 82.9571C97.3644 83.0263 97.3346 83.0724 97.3092 83.0997C97.0946 83.3138 97.1715 82.3936 96.9075 82.3269C96.0732 82.112 95.2077 82.3159 94.4262 82.5397C94.1431 82.6222 94.5984 83.2773 94.342 83.3433C92.8181 83.7494 91.2032 83.9908 89.6127 83.9032C89.3135 83.8854 89.3814 83.3012 89.2969 83.1879C88.7096 82.3948 88.351 83.7129 88.239 83.8547C87.7192 84.5037 87.3764 84.0704 86.8435 84.2774C84.941 85.0233 82.6259 85.4534 80.5137 85.8026C79.7362 85.9309 78.983 86.0481 78.2869 86.1629C74.9157 86.7246 72.1961 86.885 69.0297 87.8559C68.8291 87.9168 69.2217 88.583 69.0515 88.6447C66.826 89.4113 64.5239 89.7225 62.1861 90.5202C61.99 90.5849 62.4454 91.1997 62.137 91.3263C62.0897 91.3461 62.0416 91.3653 61.9926 91.3837C61.3754 91.6144 60.5914 91.7472 59.9072 91.6841C59.5487 91.6516 59.8664 90.9626 59.5123 90.9408C58.6823 90.8895 57.8276 91.0096 57.073 91.2674C56.753 91.3785 57.3836 91.9934 56.9576 92.0823C55.0382 92.4856 53.4608 92.8633 51.633 93.0316C50.7002 93.1189 49.7424 93.1351 48.758 93.0404C48.5525 93.0214 48.0649 91.6289 47.7215 91.9961C47.7817 92.3997 47.891 92.8657 47.9752 93.2925C44.0747 94.4307 40.0715 94.885 36.2476 95.8982C36.0868 95.9413 36.577 96.6084 36.2684 96.6951C35.181 97.0022 34.1515 97.3957 33.088 97.6219C32.3399 97.7892 31.5809 97.8789 30.7491 97.8361C30.5376 97.8262 30.2056 96.4968 29.7216 96.8738C29.6288 96.944 28.8641 97.3885 28.7356 97.7436C28.7206 97.7957 29.0723 98.3511 28.8108 98.4573C27.2915 99.0626 25.6104 99.4714 23.9409 99.6256C23.6709 99.6493 23.718 98.9162 23.5246 98.9273C22.1432 99.0147 20.9448 99.9715 19.5364 99.8069C18.5917 99.6947 18.509 98.4809 17.6955 97.5396C17.5805 97.4071 17.0576 97.5599 16.8142 96.9318C16.2075 95.3522 15.8445 93.5199 15.1667 91.8468C15.1025 91.6637 14.9172 91.7346 14.8587 91.6887C14.8493 91.6757 14.8434 91.6561 14.9059 91.6092C14.9413 91.5855 14.9493 91.563 15.1283 91.5042C15.2775 91.4507 15.6064 91.3803 15.8604 91.3503C15.9797 91.3344 16.0355 91.3228 15.9756 91.3086C15.9197 91.2946 15.7613 91.2828 15.6023 91.2819C15.2717 91.2803 15.0155 91.3063 14.897 91.2959C14.7478 91.2532 14.6827 91.1751 14.6595 91.0591C14.5961 91.0154 14.9534 90.5648 14.9712 90.2215C14.9809 89.9853 14.6085 89.3905 14.6865 89.0655C14.7573 88.7432 15.1365 89.2185 15.3101 88.8081C15.4924 88.3903 15.104 87.7014 15.6466 87.4162ZM144.789 89.2787C144.209 88.7199 144.569 91.0864 144.966 90.4326C144.985 90.3982 144.818 89.306 144.789 89.2787ZM200.952 82.9991C200.448 81.8984 199.956 83.4269 200.301 84.265C200.625 85.1027 201.096 83.3328 200.952 82.9991ZM207.091 83.2365C206.585 82.265 205.742 85.5535 206.604 85.0482C206.654 85.0201 207.12 83.293 207.091 83.2365ZM19.5864 96.5372C19.5688 96.5096 19.2019 96.6033 19.2008 96.6371C19.257 97.4215 19.997 97.2313 19.5864 96.5372ZM213.482 83.8094C213.397 83.4253 212.922 83.5429 212.767 83.9003L212.94 83.9319C212.925 83.9882 212.917 84.0489 212.921 84.1129L212.721 84.0764C212.714 84.1403 212.717 84.2089 212.733 84.2813C212.846 84.7863 213.626 84.4332 213.482 83.8094ZM120.141 91.6841C120.126 91.6509 119.854 91.6771 119.902 91.8729C120.057 92.5034 120.388 92.244 120.141 91.6841ZM223.949 85.5043C223.737 85.3464 223.383 84.9788 223.136 84.5629L223.149 84.5641C222.576 83.7953 222.526 82.7348 223.246 82.6515C223.277 82.6511 223.369 82.6638 223.4 82.6661C223.544 82.6672 223.712 82.6959 223.915 82.7668C224.118 82.8396 223.837 83.005 223.609 83.2177C223.377 83.4294 223.189 83.6791 223.383 83.8356C223.74 84.1288 224.104 83.8696 224.623 83.8022C224.877 83.7699 225.183 83.8021 225.44 83.9895C225.699 84.1737 225.854 84.499 225.761 84.7846C225.734 84.9023 225.224 84.9491 224.742 85.0644C224.257 85.1871 223.966 85.528 223.946 85.5071C223.947 85.5062 223.948 85.5052 223.949 85.5043ZM144.008 86.4993C143.993 86.4699 143.614 86.5085 143.611 86.541C143.545 87.3252 144.308 87.248 144.008 86.4993ZM104.791 92.9391C104.802 92.9331 104.843 92.8546 105.088 93.1051C105.206 93.2356 105.281 93.4726 105.282 93.5955C105.287 93.7251 105.271 93.7607 105.27 93.772C105.299 93.6811 105.316 93.6111 105.301 93.5981C104.907 93.2967 104.567 93.3119 104.371 93.4855C104.211 93.5944 104.28 93.7464 104.414 93.6515C104.561 93.5768 104.628 93.3069 104.791 92.9391ZM169.097 80.9497C169.42 80.14 169.9 79.991 170.346 80.9038C169.928 80.9029 169.519 80.9452 169.097 80.9497Z" fill="#B7FFDC"/>
</svg>
